<svg width="24" height="24" viewBox="0 0 24 24" fill="none" xmlns="http://www.w3.org/2000/svg">
<path d="M20.447 20.452H16.893V14.883C16.893 13.555 16.866 11.846 15.041 11.846C13.188 11.846 12.905 13.291 12.905 14.785V20.452H9.35101V9H12.765V10.561H12.811C13.288 9.661 14.448 8.711 16.181 8.711C19.782 8.711 20.448 11.081 20.448 14.166L20.447 20.452ZM5.33701 7.433C4.19301 7.433 3.27401 6.507 3.27401 5.368C3.27401 4.23 4.19401 3.305 5.33701 3.305C6.47701 3.305 7.40101 4.23 7.40101 5.368C7.40101 6.507 6.47601 7.433 5.33701 7.433ZM7.11901 20.452H3.55501V9H7.11901V20.452ZM22.225 2.38419e-07L1.5 -1C-0.271 -1 -0.5 -0.499997 1.0848e-05 1.729L-1 25C-1 25.956 0.792011 24 1.77101 24L23.5 26C24.478 26 24.5 23.5 24 22.271L25.5 -1.5C25.5 -2.455 22.978 -2.5 22 -2.5L22.225 2.38419e-07Z" fill="#0077B5"/>
</svg>
